<mxfile host="Electron" modified="2025-07-09T22:05:30.297Z" agent="Mozilla/5.0 (Macintosh; Intel Mac OS X 10_15_7) AppleWebKit/537.36 (KHTML, like Gecko) draw.io/22.1.2 Chrome/114.0.5735.289 Electron/25.9.4 Safari/537.36" etag="iVS324cqQrTN-pECCiJY" version="22.1.2" type="device" pages="2">
  <diagram name="cont frac" id="_SiMnZUC2XoYtOmwZ0jD">
    <mxGraphModel dx="986" dy="683" grid="1" gridSize="10" guides="1" tooltips="1" connect="1" arrows="1" fold="1" page="1" pageScale="1" pageWidth="827" pageHeight="1169" math="0" shadow="0">
      <root>
        <mxCell id="0" />
        <mxCell id="1" parent="0" />
        <mxCell id="xo4cAefHjsZTYWUSBRcN-1" value="" style="shape=image;verticalLabelPosition=bottom;labelBackgroundColor=default;verticalAlign=top;aspect=fixed;imageAspect=0;image=data:image/png,iVBORw0KGgoAAAANSUhEUgAABCkAAACfCAIAAABbSBRLAAABYWlDQ1BJQ0MgUHJvZmlsZQAAKJFtkE8vA1EUxc9UqVQTJMLGogshkqIGYVslSLqYtMSfxGL6Wm1jOl6mI9hZ+gCNhA8gVhY23VjwBUQiSEjExsLKQjIbmue+DtrivZzc3zu59+XmAJ6AzrnhBZA3bSs+MxlcWl4J+l7QBD+a0YMunRV4RNNi1ILvWn+cWyiyXg/Iv/qSF6freyf64XO7svp4efO3v+74U+kCo/pBUhm3bEAJE2tbNpe8S9xh0VLERckZl48lJ10+q/TMx6PEV8RtLKuniJ+IQ8kaP1PDeWOTfe0gtw+kzYUE1U5SN6YwjRjdIBJQMU4axixl9P/MaGUmig1w7MBCDhlkYdN0hBwOA2niOZhgGESIWEWYNCaz/p1h1TM4MPEAeA6qHnsFSg7QKqpe7za9h4DzItct/SdZxfEW1kZUl1tKQOO+EG+LgK8fKN8J8V4SonwENNzTrPMJOPllnyqFEFIAAAA4ZVhJZk1NACoAAAAIAAGHaQAEAAAAAQAAABoAAAAAAAKgAgAEAAAAAQAABCmgAwAEAAAAAQAAAJ8AAAAAd8eM1wAAKR5JREFUeAHtnW2sZFW5oKvqNMK9QtOZe00cPnQwE6dp+Oe9NJhBJxFoE8SELycCIh8zA20uDckoEIX5IWgU//BhBH4I7QeQCG07yB9ozQyYDNBzJ2BGoO9NLiqIk8lNZhqayYXIqZpn7/ecxepddar2oXrXqTr1bHT32mu/6+tZtd93vWutvU+71+u1PCQgAQlIQAISkIAEJCABCTRMoNNw/mYvAQlIQAISkIAEJCABCUigIKDv4e9AAhKQgAQkIAEJSEACEpgEAX2PSVC2DAlIQAISkIAEJCABCUhg2ffotpZf++hmUPJwFm1QAhKQgATWnABau9daPLgay5r84NiZu+otmaR3m/NuaOYaMwcVPrh3Dr6ag+ZPZROLXuj6Ru9U9s0KlYoXsJcfnxiBz844fFlpF7p71A+v/e675ki3C0vWa7faZTgiVkBktAQkIAEJrCUBVDRHoa4Lzd1qt1voc/R3ocln+SjaUpixsEW9Ng3zmG4CvVYxQmr3OjGKmPVf4HTDXk3timcptEORCv3QbbcXVpOBspMjEJ1VlseM0sx109JvDRvUDh+ibEnWqJzk0roHd1HzuCr8TNvluQiX2iSXNiwBCUhAAlNCoN1Fc6O0y4mxpRFGbx0M+wpbhCUqfalwPN5dmJ8S9FajQoDxRvn6KL/IdfALrDRuhi+XHY9SUxSDwoWihzymkkBo8nLsXXRT2VPvLg9MZZXzSsWyR+FDhBVabkIuk8JLvge/z8LlaHWK9TmmLjh6ncIAeEhAAhKQwHQSKOaXUNfFZHM5xihnkKazqquqFWYIt4rtZJ1yUaewZJqjVRGcqHCvt4inWIyU3OAzUfCrKww1wUB2veiI1bV9JqR7aPJiHmlJpUdPzZDq65Q1Lk7lCnyswi+uoLk3LHUJaqOUeGvX/+h0euU0WizlF/rEQwISkIAEpo0A05i9xW6HAToGarF1+L85qfuBP+ssK/Npq+3q6sM0ejmR/s5/2bf4fw6Qthg1uflqdRAnKV2Ma4ufYul+FOdOuCOTrINlVQnwyLBmWPqFPE/dbrtUFjGjXpX1eo0JoMdxOxbDi2+33/cv/3l74+HxQK1xzeoVT8WxRLgPGzBHpfZub/zzhX/25wNTL/seaPbS+3hr994/O/djnc5Cr7vIZJO6fiA1IyUgAQmsPYEujgfWqsfmqz/96u82bDluwwcGK/q1r+qqalBsJqNdxYTY2/9t38Jfbmz/xZHlUHaFObRVZa7woSbASwTdff+rGEKceEzRQ4UrHGPeQ12S+a2GAJ1A1/Ag8Y5HoSb4p9V++5G9h19wymqyUXZCBBbRe52FYsm31frTky8cdvSR7Y2HlV03oQqMWcxiq7dAdfGWytW1d/b/v063u2G471HoirJYNpnxu8R76XSXXhsbszYml4AEJCCBJgjEhFGc//T3fyyL6DJ3Nusj9ML2Lq3EM4vWO+Jfb1k46YOz3qiyTevzRH/90669LHS8j4nLYhqzXHuL3+X6bPHMtKrLvsVW+51Wm6lovgfAZPQ/7X76iPP/amYaME8VzZ+Y7gt/aB2zqf3hv2jzzvmM6D6qeVBNf1u+s7dCDxZzSxyRgJbHUewLjFW65Rj/lYAEJCCBqSJQrG8X70KUm2SZMpuqyo1RGUZIyf4U77IUw9nYCDxGpiZtksBhvfb7FplcX+q34p+DhiFNlm3eKxEoVg+ZT+7geBTPUHksFAshHtNIoNDk5Vc1+MhVseeIeSRWrmbnOXq3puVb593i1fkV9Xb+KyxmyxCM9LT53YymsZuskwSqBIbvjCxXApcVcDVpsZu8L84ICUw5gXJkvrQ9aaHU9TO/6LFEPJmf4rOtxXztNPfESO0xUmCaWzeybvTVYpsd3oUKXeqp1H0jE0+3wGx3XNkLS12x9P4UY7ypfpSa+znMQld26Bz6i6/rlo484/FDr89X4rBS/HvpkXIjVSe+g7JC+nff91hBwGgJTDsBnpnwlCv+8jPPPHPqqadG7UPmjTfeeOGFF7Zs2XL00UdH/B/KA7E8bcpw2ltu/SQggTUlELoiaY+kOlA+L7744hVXXEHtUiThV199dc+ePQcOHDj22GPPOuusjRs3rmn1LbyFBdi1a9fll1+e+iL66/XXX6enXnvttaOOOoqeOu644/J+FNyaE+BR2r1792WXXZY6LqqElX/iiSf++Mc/vv/97//0pz/Ngxbx/Q/pmjdhTSoQHED00ksvUYHNmzdv27aNQOIzmVrpe0yGs6U0QiCMQTwzEU7m4aKLLnr66acvvPDC2267jbKR4dYtt9zy05/+lMsuH/zIFvZ+/etfY2Ainpd3QzgXaKT2ZioBCcw4gVxLJOWD13H11VfjYDCiRYAjWnnrrbfed999hEOSy5tuuumCCy6YcQazV/3UUzgY9BT9tXXr1pioiluPPPIIvcMoNtqG4bjyyivprJRw9tq8vmpMx23fvp2OO+WUU+i41C/RcTx6mHhM+Te+8Q2ewZtvvjlvfXoe88j5CTP9esMNN4AODjEQYjb2gQceSBOyk0Gh7zEZzpbSCIFciRAOBcT5/vvvZ96RGOa0UsFcMonFXZ40HjziiTnxxBPPO++8cDyIKb8adNA8ZUpuQAISkEBOII14IhJ9QoBR0fXXX8+wtXKXiUYcDww8CoeZWuba0U5IMnJiTj3P1nDTBKKn6KBvfvObyRZEf3GLvqNfqANuIbPmmJK9e/diUz760Y9+7nOfa7pu5l+HAE5FTNsjnB40Ou4rX/kKPUjH8Uwx+fjss8/u3LkTK3/++edHp+fydQpaZzIguuSSS9BRKCKYoIj4eQNq3759eHEJ0QRare8xAcgW0RSBpHSiAJ4cYlBJd955ZyqyIkP8Y489lu5WAiE8ySewUgEvJSCBWSEQCidXF5j2iy++OOYUoxVJ/zDlgZvxta997aSTTuIW07Gf+cxn2DeCE3LttdfOSpPXUz1vvPHGn/zkJ9F9qZtoIAMyNlmdccYZMWCld1gbwXX82c9+pu8xDT8Apu1Z34guy8/MIbLJ6lOf+lSsJe7YsSM6js0OERPC/T0+DY2aTB2Y/kBH5QsdUMJDC8cjfwqaro++R9OEzb9BArnVT2olJh0x8KwtUnaSQYCJRs5DKpQLp/AQeW9JQALzTAAtkRtsNAyOB6Yd5VO5xUTsgw8+GKxIwgCXoRILrUceeeQ8A1yTtkeXPf7445iJWPdI1Yhb99xzT+op+jEWpuiyJGZgDQnQcTxiTDKmRy+MNefvfe97EY5b0XHM8cdl3Iqa5+E1bMskiwYCbhhnNqInJlSADYdEEoBJgJpArfQ9JgDZIpolEE9LqJI77rgDW8IkxzHHHEMgnqgkwCzjhz70IVz/X/ziF9SJ9XQkefDy+iXhPNKwBCQggYEEQvOE3mBI9PLLL7OHgdUPhFey5cSjhRg8MZyNFz0H5mxkQwSiy55//nny/8hHPpKXkvcm8VyyKeXhhx8mwGa56OVc3vDkCTz33HN0xwknnMCZI69AXEY30XEsj3D33HPPJd6+Q+EwOcIOtJgc4a0Y4MRrTolPDjAHe8jD+h6HHKkZTppAPC2UirOB78FUBy8Fsj03dE3SODx1SOJ+8BIhgXjLCt3EMvq3v/3tVOmUW4oxIAEJSGAIgaRkQgYdwkEklwQqCdkR+v3vfx/Df/zxx999990xNVuR8bJRAqm/oo8qZcVdznznCmMRhoOeYiNWRdLLNSEQzxRrhvQRR38d6DheCHnllVeQZAkrOq7/SexPuL5j+CWDC7Vz+umn8x2wGAIx/cH+TzYW5nwII5nHHHIyc/ql50PO0QzXnAC7GNncSTVYT8wXx/Pnh3i8fAT4qsO9995LmLvMacXm0UoTBiq1ioyXEpCABHIlEzQq2iO/ZJMVq6+IxTwIiisHmCRTIL9r+JAQSP2VAnm2EckZexGeIX2BE1LZnZUnMbxWBAb2YOo4alXpuHl+rFj3wGFjxxoTH7x4xhbQ+AIYM7bxcQVwJT4DwR7CXtb3OIQwzWotCTCbiFvPi1P5Hiqen3iWcPGxIiyy87zxBiFeB3MheCCnnXYalWYTZP+T1h+zls2zbAlIYHYIVLRHfskf/Xj00Uefeuopdj6wLSRmTFLLQhKtlSdJdw1MkgBmAnuB1eBb7RgX9tHxgaBJVsCyBhJINp1nJI2VkyQxdBzGnU/nY+vpOD64z2g7JAcmSWnXfQAIEGAtiLUOBj+cmYSl1XzxovJ+bNMo9D2aJmz+kyCACWcbA69PoXT4aAOXfE6Xgvfv38/aIs9bfDyXmHj2UuDSSy8ljDxnjlBPeaCM9iQBCUhgFQRiP0N/gtAwmH+mQtjGQwDlw/Aol0w6Ko803ASBhDpp/ryUiGQS/Vvf+hY7VbAmvCg4UDJPZbhpAjw1FMF5YF/EXQTouO985zu81cnSIpP9ST4JNF3PacufhnMw5cEwiUDQY66WLy6gr375y19OssK+7zFJ2pbVFAFWDPEusA2f//zneaiiGB4tvlp99tln82paf8EhhruSbiEfDyRnjhRvQAISkEB9AqFAMOf9SUKxhKphOEuAA9/Dtz76WTUaA3bypzuim9LkVF5osgIEGMLSTRwpMpc0PHkC9GClL1JMClArnjImIum4iORMZCXh5Cu/JiXyAR6aj0sWpScIxBDmFkcE0q3m6qnv0Rxbc54cAZZWmT7kgeHg+aHg0kz8ga9Y8iUrIonhA+1cxiarqBmSsYUXu0JMiMU5BDxLQAISWC2BUEGV4SwftjrzzDMZCZFbKBlUVkhi+wkQGZeqoNUCX618oh0Bkgf5CPCmMj3C3HBc0h3s2MFS4KVgQVZblvINEaBfOPLMo+OYyCc+epYVjzDxMbxGOJKkfs+Tr/tw/KQBwu85fslwePPNN2O3Fd+/StxA0TQi91yt+9/bXDSQrzQ89NBD7M398Y9/zJkDb4SWs5jIN68CAWsj/EVP1l4TEXZnxV8hZDtvRPK8VQJJ2IAEJCCB+gRQJkmfYO955/Wcc85hBiRyIHDVVVdh7NFR7IKIIRFnjpSqfllKrpYAkIN2JSGR/G1s3hDAV+TtDi7pO5bTGcVu2rQJ77Ei7+VaEeh/Uvibg/QUn7iks7jLkJp+JIzjkXdcdP1aVXsNy2VxlS96A+SWW26JauCEfP3rXyeGW5WvgQGw0aq67tEoXjNvlkAokVyVVB6YfNsDr6Fj/rdv387UI4uPuPu/+c1vkMfwf/GLX4yKpuQp0GwDzF0CEliPBFAguXaKPdYsdPBmObfQS6yKcGbPJ5/dSxosAqF8UuR6xLOWbUr9MrAS3L3yyitvv/12jAUHMsTEEhafBoplq4EJjZwwAR6fipnGjn/3u99lYE3HRS+HAPOPecdVUk242mtbHG8u8Xk9PuzJ3AcLHXz5Knyz9Mc0J1Y9fY+JobagQ08glAjnUDR5AWyjIjLXOHxeBucercRnv2P3J/NYLI/gkzAvkqc1LAEJSOA9E0DPsKWBc+QQ2gnrvnPnTkw+8+iMZTdv3sz+z2uuuSa9chZiSZXN8wjpPZOvk7BiL3ALMQeps7iLRWByio8fsjAeRoTNKnwRiLFanfyVmQyBk08+mWE0HZcemeuuuw67v3v3bjqOOnCL/Vd0HF3MZRKbTPWmsxS0zWOPPYbvwVcTWPTgh33KKaewL33yQ6Dq8u7+i+7e9OD26aRmrSRQk0BoGWYZUTr9DxVLsSx6IBPbH2vmqZgEppnAm7c+esR5H9uwpXhzaT0d67Vd66mPaMtbu/6W0d0R5//1OmvX+muOY7yZ6NN1oPcWf/uPePKdf/GXA4G77jEQi5GzTSCmDJNrkU94EGaDdR4z20219hKQgAQkIAEJSGB2CPiu+ez0lTV9TwQqbka4JXF+T/mZSAISkIAEJCABCUjgPRLQ93iP4Ew2KwTCzcADmZUKW08JSEACEpCABCSwXgnoe6zXnrVdBxHAA8H9yD2QPHyQqBcSkIAEJCABCUhAAs0Q0Pdohqu5TgeB5GAQwP0IDySqRng66mgtJCABCUhAAhKQwLwQ0PeYl56ew3aGvxHuR/I0kvuR3JI5JGOTJSABCUhAAhKQwJoQ0PdYE+wWOgkC4W8kryMVuVJ8EjAgAQlIQAISkIAEJNAEAX2PJqiapwQkIAEJSEACEpCABCRQJaDvUSXitQQkIAEJSEACEpCABCTQBAF9jyaomqcEJCABCUhAAhKQgAQkUCWg71El4rUEJCABCUhAAhKQgAQk0AQBfY8mqJqnBCQgAQlIQAISkIAEJFAloO9RJeK1BCQgAQlIQAISkIAEJNAEAX2PJqiapwQkIAEJSEACEpCABCRQJaDvUSXitQQkIAEJSEACEpCABCTQBAF9jyaomqcEJCABCUhAAhKQgAQkUCWg71El4rUEJCABCUhAAhKQgAQk0AQBfY8mqJqnBCQgAQlIQAISkIAEJFAloO9RJeK1BCQgAQlIQAISkIAEJNAEAX2PJqiapwQkIAEJSEACEpCABCRQJaDvUSXitQQkIAEJSEACEpCABCTQBAF9jyaomqcEJCABCUhAAhKQgAQkUCWg71El4rUEJCABCUhAAhKQgAQk0AQBfY8mqJqnBCQgAQlIQAISkIAEJFAloO9RJeK1BCQgAQlIQAISkIAEJNAEAX2PJqiapwQkIAEJSEACEpCABCRQJaDvUSXitQQkIAEJSEACEpCABCTQBAF9jyaomqcEJCABCUhAAhKQgAQkUCWg71El4rUEJCABCUhAAhKQgAQk0AQBfY8mqJqnBCQgAQlIQAISkIAEJFAloO9RJeK1BCQgAQlIQAISkIAEJNAEAX2PJqiapwQkIAEJSEACEpCABCRQJaDvUSXitQQkIAEJSEACEpCABCTQBAF9jyaomqcEJCABCUhAAhKQgAQkUCWg71El4rUEJCABCUhAAhKQgAQk0AQBfY8mqJqnBCQgAQlIQAISkIAEJFAloO9RJeK1BCQgAQlIQAISkIAEJNAEAX2PJqiapwQkIAEJSEACEpCABCRQJaDvUSXitQQkIAEJSEACEpCABCTQBIFD73v0er0mKmqeEpCABCQw5wSwL8NNTNwdLjPnDG2+BCQggZEEcl2ah/OEeXy/1u2PSWlX53uslFEe3263U+4GJCABCUhAAoeKAPYlmZjc7kT+xMTdJJOX2y+f3zUsAQlIYM4J5Eoy6dLQq0m7JplKPPKVW0NgjvY9huSVbg1U9ENK9ZYEJCABCUhgHALJ7oQl4lwxfmSebhHO745TrmklIAEJrBsCFSVZaVfoVSKT/swDEZ+ScItwRRWnu3lgtO8ReZEmlZfSp1spJgLRkv5wRcxLCUhAAhKQwKoI9NuXsE3pTG7J+IWRSqYqBVZVosISkIAE1iuBipKsKNhcZ6YwgRBLwvllEhtCbMOQe9wiu8jlmWeeOfXUUyOcIhH4Q3ls3LjxxBNPTOWlAAJ5eHhZ3pWABCQgAQkMJxA25eGHH960adOZZ54ZwhHJec+ePS+++CKR3NqyZQuB3GANz9m7EpCABOaQQFKSKQCECDP4R6NeccUVFSyvvfbaE088ceDAgWOPPRZle/TRRyOQD/gJk0NkUknL5QjfIzK6+uqrUegPPPAA7kfKndrccsstzz77bBRw/PHHf/WrX922bVsqY6Uik4ABCUhAAhKQQE0C2BQksTiPPPLIDTfcsHXr1vA9wta88MIL27dvZzYscrvjjjswWPfccw9TY8Qke5QCNQtVTAISkMD6JhBD/aQbI0AkSpXx/xtvvFHxPW699db77rsPJkh2Oh0ub7rppgsuuCCn1O12yYEjj0zh0XuuKADnhgJSmghcdNFFOB54PBgAlPsrr7zypS99CQ+Ju7lwHq7k4KUEJCABCUigJoGwZEx7YepIkqxaBG688UYcD+zRtddeG1YQexSSef4pVR5pWAISkMCcEwjdyKA9Aq+//jpKFcejggWPAL+AYf/ll19+3XXX4QWw+nH99deneZ8Y9uOTDFG2I3wPppf6dTf1iNqcf/75v/rVr1gPeeqpp04++WTK27lzJ3fz8vJwpQFeSkACEpCABOoTwPFg2gujmJKk6a0zzjjjyiuvfOihh/A9brvtNubhuIUJC0ktUSJmQAISkMBKBEJV4k5ccsklrHv0i7GXlSXlBx988Oabb96xY8djjz12zDHHILZr164QjhxQvxz9ySNmxJ4r1rVxbvr9HiKff/75VAyX6H1qmUuq61eCbrwEJCCBuSKAEeq3CAMjh2NhKQMrc9JJJ+GEhGTKFpeDmJTncccdxy1sUx45PHPvSkACEphPAklzRvNfffVVhvS8yP3SSy9VgKBacTyQJz50LC978PrHUUcdlSLjVlxWksfliHWPn//85/g0K+WS8sUYhMeDB5IiB5ZnpAQkIAEJzBUBjELyEGh4shFEpnAE0uVKfNh2/PLLL/OaR542F454Vv/vvPNOwmy+Ik8CSWZkEUnSgAQkIIE5IVDRqCxuoGlZ2cibnyvPJH///ffjpTDLc9ZZZxGZ4nPhPJMIj1j3SN8JIRc2b1XSUwZF/uAHP2D7F+4He7/ifRSEuVUR9lICEpCABCZPYM0VcjIH7OA9/fTTP/nJTyYIYag4cxAZ53R3SGClRjFdxxvnsSqCPWLnFZkgHJmvlGpIQd6SgAQksO4JDNSNFbWc9HMI33XXXbz4wQ5YvjXFVz1YD4FSnk+S76dXdSf6JSIjHA8ClbvEsBzDhtrYffvmm29GYEh5lRy8lIAEJCCBRgmsuUJOtuP0T37izG1nfXTzv7rzu3f939f3R6vrVy/lQ5IUrqDjFoaQSTgEsE0cCBDJQUycK0m8lIAEJDDnBNCNEKjo1YE6M0WyyQp/A++AdWbmlViBSLfIigz51NVKVEf4HpFRVIhwyiXCZM2KNusy9957L9vC+OD6xRdfnGQiVX5pWAISkIAEJkkg19uTLDcvK6waMZ84/RMcv/vd77785S9/8IMf/Hf/4d//16eezCWHh8knmsM55VlJgi28++67n3vuOXYLYAv5+grfY8whrJSwko+XEpCABOaNQKjHXGHm4aARMpzZ68RLGU8++SQ7pHgT76qrrkq3QrJ/t1TiOcL3iIyQJhDhqEeEiY9Ldt/ydRGmmljpZv9Vyh2x/nqnuwYkIAEJSKA5Aqjfd3V1c8WMyjm3Ap/97GdDfLHX/uEPfoztOOXUrT/60Y/2719aBhmeWWoOYnm2lUvEsIvxpV2WPsIS5WmHl+JdCUhAAvNJIKxG0q79ajPdgg9hpnvYcEV47969LICkuwRSuJ/kiPc9UoLIgnNej7iMM45HuD7swuKNk/xWysSABCQgAQlMjADq+vDDD++2lvT2iuvfDVeIKa7CcHR7rU6xCt9pb1gsq0TFOr2FXz//P//jV76M73HNNdeMrEhug8izckny3PTw4Xli+AAL59xyjSxFAQlIQALzSSBUZTrHnwjs17TASZHpTQ9et4vwSHSjfY/IPbZtJfUdn9PC36CAPDKVl+qdYgxIQAISkMCECbz99ttps+xafQCECvRwNrAVrdZ//vmjF17wb1vtJbt1/Ic/9MVLvrDj2r/ZtPHoOmSwLJgkJOOcrA9zXnz4hIWO3PSw2wrJePcjSdYpRRkJSEACEiimisqXvUN/hjvA++Xbtm3jb3okpfr0008HKz62WxPaiD1XUVKc8xzPPvtstu2mL6wjwLZaPB5kWENPksSnsAEJSEACEpg8AUb88b/JF71UIp9JLB0PLvlue6vd7bS6J3z4+O/fe88//N2+/3Tz12o6HpFb7l0QE1bm9ttvxwZxxN/W5cwfp2ILMnfPO+88kmiMlvrCfyQgAQnUI5C8ixDnkmE/r5XjAqTXKx5//HE+LYgAW5848owryfNbI9Y9+lOiwYnEweAPepxzzjmbN2/G0aE2vNVHvnzTMMoOsf7kedmGJSABCUhg3RNIhuD3v/8932TnG7uXXnrpFy75Ah5RWIqcQH9MfpcwApxTnhHA9OzZs6f8rtXSh61irf7CCy9Me4Ar+XgpAQlIQAJDCISyzQUY4fNHzVnoCH8j3WJ5+bbbbqto7/7kSX6E7xFyZMrfV+dzWlyi6MmOT4gQ4MNW+/bti9zZ43XZZZfF3/cIsVSGAQlIQAISkMAPf/jDX+75BWvmCUVyIYbEpFsRIAmfVcS14K+bp1tbt27lT+3u3LkTo8jX3o888siPf/zj5557Lo4HMv2lpIQGJCABCUhgIAG+Vx4f0k13GfDzZjl/T5C5ntj6FN7Ijh078BRCDJlQuUMUb3Ulev9Fd296sFg9yQ/Wr/nDHbmiT1mj6MmdV/qoYp4khZNkijEgAQlIQAKHlsCbtz56xHkf27CleLt6Oo+wBStZhJXih7RrpSR58ysylctc0vA4BN7a9besSB1x/l+Pk4lpJ0Bg4BhvAuVaxKoIDNF7q8pnfOHQmfU1Z5Jc/O0/UvrCCR8YWIda6x6saXDk6fE3ooDTTjst4lN5XKZwCuRpDUtAAhKQwLwRyGfCKqYhLiuRA/nkMpFhHlNJkt+KcCSpiHkpAQlIQAIVArnOXElz5jo2JU8JCaTISmDEu+ZIR+KURQpUqpLMAEnSrRSolOqlBCQgAQnMJwGMCKYhmRIgxOVIexEJK9DyVHmekW0SzsVSpAEJSEACEhhIYIjODE27kkKOhHG3opNTQSN8j5Q1eUUW/bXJs05388hUmAEJSEACEphzAmEmkrEIGulyiO1IMjnAXD4J5JEIVy7z5IYlIAEJSGAkgVyLomm5jPNKCZPMQIERvkdS5STOwymvlYofKJxSGZCABCQggbklkMxYCgSKMCg1sUTagbamEplfVkqsWZZiEpCABOaZQK5F4cDlcHU9XNOO8D1Ggo7aVOo0MpUCEpCABCQwtwSSyUiBQFG5HM5nVcIpq/eWKiU3IAEJSEACEBipS4cIjOt72AESkIAEJCABCUhAAhKQgATqEND3qENJGQlIQAISkIAEJCABCUhgXAL6HuMSNL0EJCABCUhAAhKQgAQkUIeAvkcdSspIQAISkIAEJCABCUhAAuMS0PcYl6DpJSABCUhAAhKQgAQkIIE6BPQ96lBSRgISkIAEJCABCUhAAhIYl4C+x7gETS8BCUhAAhKQgAQkIAEJ1CGg71GHkjISkIAEJCABCUhAAhKQwLgE9D3GJWh6CUhAAhKQgAQkIAEJSKAOAX2POpSUkYAEJCABCUhAAhKQgATGJaDvMS5B00tAAhKQgAQkIAEJSEACdQjoe9ShpIwEJCABCUhAAhKQgAQkMC4BfY9xCZpeAhKQgAQkIAEJSEACEqhDQN+jDiVlJCABCUhAAhKQgAQkIIFxCeh7jEvQ9BKQgAQkIAEJSEACEpBAHQL6HnUoKSMBCUhAAhKQgAQkIAEJjEtA32NcgqaXgAQkIAEJSEACEpCABOoQ0PeoQ0kZCUhAAhKQgAQkIAEJSGBcAvoe4xI0vQQkIAEJSEACEpCABCRQh4C+Rx1KykhAAhKQgAQkIAEJSEAC4xLQ9xiXoOklIAEJSEACEpCABCQggToE9D3qUFJGAhKQgAQkIAEJSEACEhiXgL7HuARNLwEJSEACEpCABCQgAQnUIaDvUYeSMhKQgAQkIAEJSEACEpDAuAT0PcYlaHoJSEACEpCABCQgAQlIoA4BfY86lJSRgAQkIAEJSEACEpCABMYloO8xLkHTS0ACEpCABCQgAQlIQAJ1COh71KGkjAQkIAEJSEACEpCABCQwLgF9j3EJml4CEpCABCQgAQlIQAISqENA36MOJWUkIAEJSEACEpCABCQggXEJ6HuMS9D0EpCABCQgAQlIQAISkEAdAvoedSgpIwEJSEACEpCABCQgAQmMS0DfY1yCppeABCQgAQlIQAISkIAE6hDQ96hDSRkJSEACEpCABCQgAQlIYFwC+h7jEjS9BCQgAQlIQAISkIAEJFCHgL5HHUrKSEACEpCABCQgAQlIQALjEtD3GJeg6SUgAQlIQAISkIAEJCCBOgT0PepQUkYCEpCABCQgAQlIQAISGJeAvse4BE0vAQlIQAISkIAEJCABCdQhoO9Rh5IyEpCABCQgAQlIQAISkMC4BPQ9xiVoeglIQAISkIAEJCABCUigDgF9jzqUlJGABCQgAQlIQAISkIAExiWg7zEuQdNLQAISkIAEJCABCUhAAnUI6HvUoaSMBCQgAQlIQAISkIAEJDAuAX2PcQmaXgISkIAEJCABCUhAAhKoQ0Dfow4lZSQgAQlIQAISkIAEJCCBcQnoe4xL0PQSkIAEJCABCUhAAhKQQB0C+h51KCkjAQlIQAISkIAEJCABCYxLQN9jXIKml4AEJCABCUhAAhKQgATqEND3qENJGQlIQAISkIAEJCABCUhgXAL6HuMSNL0EJCABCUhAAhKQgAQkUIeAvkcdSspIQAISkIAEJCABCUhAAuMS0PcYl6DpJSABCUhAAhKQgAQkIIE6BPQ96lBSRgISkIAEJCABCUhAAhIYl4C+x7gETS8BCUhAAhKQgAQkIAEJ1CGw7HssthZb3Var2+v1smTEeEhAAhKQwHQS6LZCYfdavc5iG/2NGs9V+HTWelStaEF3uV2LHVq0bKdGJfT+2hAofnYHjxb4Qa5NVSy1QqB4kophXdEfRR91Get5TCWBoovKB6cItBdb7YWymgc/WVNZ86VKFfUuf2hloNvuFlUvw0sC2T9LOr230OoUP8/OQruHpi+E+b8aPyNlUAISkMCUEVgelLeLMUWntdBu4YJMWR1XXx1aQMNiImyhNEfksYIJW33upmiAwEK7s1j0WZk15zb/eUwBgV6n3Wu16Yz20gPVLi48ppEAPcXBFFLRXT1G7jF0X1by01jlg+pU1JsfW/n4c2Oh0AIrOk4bImnxYyx/kdivA5+/q9c+jAgyChYh41kCEpCABKaHQKfX6bUWu53eArNlvd4757UO66Hxi3HGjB+YX8ZM/IcdWjhw625sWLts2Yy3a51Wn97pMoBYeH3Xf+d32KOv+A3y23T6cq07nF5Y7HbbZUds6LQWea66G/ZfdPda18vyBxDotLrvtHqH0UXdd9rthQ0n/P6t/72/8B1n5DlCXfP049xij2gI8xELH/5A4UcMaCvOxfKsUtzFY2HxtFOII48KmRmXa1DrjJOABCSwjgkszSr1WoWFQseznSLW6We7zUszZ8Ue4MLlwKQVxohDezSdHcvvsOyaHhtF6KgId/E/prO6c1Kr4jFiy1WneHTKR6pUF92Oj9F0/gCKvkqT/qW+K7tt+eGazkr31ar4pZW/vOVfHf8O0AOZ75F+o4W6L12V8tfal7MREpCABCQwBQRQ0RzJSkV4WZOX92bzhNPRKRfiY8yE8aWN0czZbND6rzU/ReYxl1zgottWmu9c/yimqoUsjOK+l08QPcLhYzRV/XNQZXhq+K/cFccsElMu5TLAQSJTfVHao+JnVq5+UNXChyj+P6DWy+4It4sXPor3FNv4I0XiwQkG5GGUBCQgAQlMngCKelmtl0ar/FhIOc05+bocyhILx4PNzuWifDGiLcyRx1QT4HfYYXN3jG+nuqZzVTn6oxjkHaQo5grATDV2ada/UHcL3SXHoxiWz8pRGqPiVHgRxVGGB9d+ad2Dj1zxtnkpgvboZPZscDJjJSABCUhgbQmg2Xts527ziZDYWFGuzs/+ukcx8VXs3im2j2F6mRDDJul+rO2PbUjp5e+QcQabrJZ3/BVdqMc4hNkkbhUjv1iAKifU034WHcRJ0H9PZRQP0fJqRzl2L955K/pxFg7WasKLiB8e9T7InTi4Cdmeq/JGua2Wd8QKTV++oDQrrT64WV5JQAISWPcECk1dqndaWuzsRtsvL2XPeNvDEpWNKB2qGW/OPFSfn19x4Clymp0BU9R6fZ7D8She4i1mlFlBXNrIuD5bO/utWu6vwmuPL0QV/TZTCrDUAku+Q2mQVuqVqu+xkpzxEpCABCQgAQlIQAISkIAExiGwTibJxkFgWglIQAISkIAEJCABCUhgAgT0PSYA2SIkIAEJSEACEpCABCQggdb/BzdTYwH4UmG9AAAAAElFTkSuQmCC;" vertex="1" parent="1">
          <mxGeometry x="20" y="120" width="1065" height="159" as="geometry" />
        </mxCell>
        <mxCell id="xo4cAefHjsZTYWUSBRcN-2" value="" style="shape=image;verticalLabelPosition=bottom;labelBackgroundColor=default;verticalAlign=top;aspect=fixed;imageAspect=0;image=data:image/png,iVBORw0KGgoAAAANSUhEUgAABCkAAADiCAIAAADs9ApUAAABYWlDQ1BJQ0MgUHJvZmlsZQAAKJFtkE8vA1EUxc9UqVQTJMLGogshkqIGYVslSLqYtMSfxGL6Wm1jOl6mI9hZ+gCNhA8gVhY23VjwBUQiSEjExsLKQjIbmue+DtrivZzc3zu59+XmAJ6AzrnhBZA3bSs+MxlcWl4J+l7QBD+a0YMunRV4RNNi1ILvWn+cWyiyXg/Iv/qSF6freyf64XO7svp4efO3v+74U+kCo/pBUhm3bEAJE2tbNpe8S9xh0VLERckZl48lJ10+q/TMx6PEV8RtLKuniJ+IQ8kaP1PDeWOTfe0gtw+kzYUE1U5SN6YwjRjdIBJQMU4axixl9P/MaGUmig1w7MBCDhlkYdN0hBwOA2niOZhgGESIWEWYNCaz/p1h1TM4MPEAeA6qHnsFSg7QKqpe7za9h4DzItct/SdZxfEW1kZUl1tKQOO+EG+LgK8fKN8J8V4SonwENNzTrPMJOPllnyqFEFIAAAA4ZVhJZk1NACoAAAAIAAGHaQAEAAAAAQAAABoAAAAAAAKgAgAEAAAAAQAABCmgAwAEAAAAAQAAAOIAAAAAdoWoqQAAQABJREFUeAHtnW2wHNV55+flCohB98rJbhIjYW9wXiRBpZzdWIisLaoWJFxrTIIRHyJsbIPXQGIEH4xIGeHaiiVSJk4Vgl1LeIMkTIAPlnD8VolenDJyYiSRLWMXesGpUMHoylnb2ZWuRMLLnZn9n/PMnDm3Z+7VXN3pme6ZXwv6Pn369Onn/J7u5/RzzumeYq1WK7BAAALZI1CtVkulkul1+PDh97///VdfffXmzZuLxaISd+3atXHjxvHxccs2f/781atXr127dnR0NHtVQSMIQAACEGhDQM9gcum21u4gtMlKEgQGhYC74gelLtQDAoNDIG6QTFb4sWjRokRoocSJiQlVe/ny5YNTeWoCAQhAYGgIhHgjCENTdSo6pASIPYbU8FQ7vwTisCS/tUBzCEAAAhAQgX379mm9YsUKaEBgSAjUZ3QMSW2pJgQGgIDNubL1AFSHKkAAAhAYZgKKPZ555hkRUL/SMHOg7sNDYGR4qkpNIQABCEAAAhCAQKYIVAu1gnuJr0CPUqbsgjLpEWDcIz22lAwBCEAAAhCAAAQgAAEINAkQezRZIEEAAhCAAAQgAAEIQAAC6REg9kiPLSVDAAIQgAAEIAABCEAAAk0CxB5NFkgQgAAEIAABCEAAAhCAQHoEiD3SY0vJEIAABCAAAQhAAAIQgECTALFHkwUSBCAAAQhAAAIQgAAEIJAeAWKP9NhSMgQgAAEIQAACEIAABCDQJEDs0WSBBAEIQAACEIAABCAAAQikR4DYIz22lAwBCEAAAhCAAAQgAAEINAkQezRZIEEAAhCAAAQgAAEIQAAC6REg9kiPLSVDAAIQgAAEIAABCEAAAk0CxB5NFkgQgAAEIAABCEAAAhCAQHoEiD3SY0vJEIAABCAAAQhAAAIQgECTALFHkwUSBCAAAQhAAAIQgAAEIJAeAWKP9NhSMgQgAAEIQAACEIAABCDQJEDs0WSBBAEIQAACEIAABCAAAQikR4DYIz22lAwBCEAAAhCAAAQgAAEINAkQezRZIEEAAhCAAAQgAAEIQAAC6REg9kiPLSVDAAIQgAAEIAABCEAAAk0CxB5NFkgQgAAEIAABCEAAAhCAQHoEiD3SY0vJEIAABCAAAQhAAAIQgECTALFHkwUSBCAAAQhAAAIQgAAEIJAeAWKP9NhSMgQgAAEIQAACEIAABCDQJEDs0WSBBAEIQAACEIAABCAAAQikR4DYIz22lAwBCEAAAhCAAAQgAAEINAkQezRZIEEAAhCAAAQgAAEIQAAC6REg9kiPLSVDAAIQgAAEIAABCEAAAk0CxB5NFkgQgAAEIAABCEAAAhCAQHoEiD3SY0vJEIAABCAAAQhAAAIQgECTALFHkwUSBCAAAQhAAAIQgAAEIJAeAWKP9NhSMgQgAAEIQAACEIAABCDQJEDs0WSBBAEIQAACEIAABCAAAQikR4DYIz22lAwBCEAAAhCAAAQgAAEINAkQezRZIEEAAhCAAAQgAAEIQAAC6REg9kiPLSVDAAIQgAAEIAABCEAAAk0CxB5NFkgQgAAEIAABCEAAAhCAQHoEiD3SY0vJEIAABCAAAQhAAAIQgECTALFHkwUSBCAAAQhAAAIQgAAEIJAeAWKP9NhSMgQgAAEIQAACEIAABCDQJEDs0WSBBAEIQAACEIAABCAAAQikR4DYIz22lAwBCEAAAhCAAAQgAAEINAkQezRZIEEAAhCAAAQgAAEIQAAC6REg9kiPLSVDAAIQgAAEIAABCEAAAk0CxB5NFkgQgAAEIAABCEAAAhCAQHoEiD3SY0vJEIAABCAAAQhAAAIQgECTALFHkwUSBCAAAQhAAAIQgAAEIJAeAWKP9NhSMgQgAAEIQAACEIAABCDQJEDs0WSBBAEIQAACEIAABCAAAQikR4DYIz22lAwBCEAAAhCAAAQgAAEINAkQezRZIEEAAhCAAAQgAAEIQAAC6REg9kiPLSVDAAIQgAAEIAABCEAAAk0CxB5NFkgQgAAEIAABCEAAAhCAQHoEiD3SY0vJEIAABCAAAQhAAAIQgECTALFHkwUSBCAAAQhAAAIQgAAEIJAeAWKP9NhSMgQgAAEIQAACEIAABCDQJDDSFJEgAAEIQAACEIAABHpCoObPUiwW9bcu9+S8nAQC/SXAuEd/+XN2CEAAAhCAAASGgkCt5kIMW0tQzOHCjmqtWGvIQ4GBSg47AWKPYb8CqD8EIAABCEAAAj0gYEMcWr/88suPP/64nVGb1fqwR+H555//wQ9+0ANNOAUE+kigGOLvPirBqSEAAQhAAAIQgMDwEFi2bNnYWxd8+MMffuaZZ97xjndcccUVX/rSl/5233eOHj1qIcrwoKCmw0aA2GPYLE59IQABCEAAAhDoGwH1+Sq60LjHLf/t41Ki6mdhjZRKSv/85z+/9pN39E0zTgyBnhAg9ugJZk4CAQhAAAIQgMCwErB4I9RemydPnvz1xb/xf0+cKBTc7PdarfLvfv7nX3zxxbH5o4x7BFAIA0mA9z0G0qxUCgIQgAAEIACBrBBIhBPaHBsbu+mmm8JDWLlQ/sM//EMCj6wYDD3SJMC4R5p0KRsCEIAABCAAAQhMJWDDIP/0o5d//dcW254FCxb88B+OLhgdc6+du69fsUBgYAmEkHtga0jFIAABCEAAAhCAQHYI2DDIf3j7O1Zc8Z5KoVItVq/5wH91gYcWAo/s2AlN0iFA7JEOV0qFAAQgAAEIQAACMxLQd64Uh2gY5DOf+YwySpgxOzshMAgEmHM1CFakDhCAAAQgAAEI5I6AQo1f+uVf+sAHPvDo//pzm4iVuyqgMARmS2BktgeQHwIQgAAEIAABCEBgjgQs2NAb5x++8UMqKvE++hwL53AIZJYA4x6ZNQ2KQQACEIAABCAwyASq1Wqp1Jz9ztDHIBubujUIEHs0SPAXAhCAAAQgAAEIQAACEEiTQDPaTvMslA0BCEAAAhCAAAQgAAEIDDsBYo9hvwKoPwQgAAEIQAACWSDAd66yYAV0SJtAMvaoFarud2384uS8LcNz3zorNSzlrZQbY01no+nS83YNmlka5vA2mmKo3NVn0BWuW6f+p+qvw4b5elv3s7oFpKrTObjuAbnYGuZQ7RoNUX+M0ttLIK9nc+ZqmMz+hgsyr1Xqk95pvG7uP9vrbh9vmuYzXp+qmNZpz8p/pqXM2ZdbN1LFlVDTv5z5vVrNay7dG0Kh9mYrjfg7V6phqVgrnfzwF/RDN9VSsVwrFWol/eRN62H9TdEVZvenCW037Sq0z2aHtTNl49j+VmHuZ7eoUb9JVCyUValSoapqVgvJYHLuJ5p7Cca8LXlL1Mt2Ul6LzhVnk6wUS5+7Gj0rwb1EVXKa1wqlUrVSLJbdTSQT5XmRFcxMZqDYTHG1cmeyYq1SK5YLxWqpov+LEgrFsqzW3VvJ6AmUhOnQJV45janOKJfMxZeLFfm28++7bmTxhXLkMx6Sg52yRtmp6W6kVzd8ffLFH9W8k8iB6g0VW++UYHoJer3YbihlD+mNQ3P4tygnVywVipN6ZNBjQ6E2Uqh19ybqIpTYNDH8OH06u8T5u6hSWkX55zdriapFOYaRmp4ZKnq480+4aZ019XKDpXQm3UralGBre2CQ3PYWswNNv1hOXeOOT6AmSZpXXNgxUqy9WdNTebddn1U8Xhs9odOi9I6VTWZUG3ROofR6cbKsa65Qe6NcOP+6y8+7/j8m8xUKzdijUiiVXfQh+1XGnrpDWYuKt/TAlNVWLAGutW5ximWOU/Iun974lbf83rLSJQvV6eliRtnLC3mpV7BIq6AqzMq42aqys4QLO7TWLVw9evzfnj4w+unrMnsfdUgvmGmG/CFPEGbInJVdZq9q7eRN/3PsLz7pWuquBokzX8kz7+0EkdR315mP20/f/5d6olBblVWf3UmF6nlKrilyN5Fza/Oq56//vZElC7Uvp1WbwdB5ullmNOBrO5+TtS64bpkeX8x2M2bP0M6ECRKbsaIz7IqzZUu2BwN/N5l44saHFzzhnvHyvrQ1R9vERE0tTyc5EwemvSmVXAeVt9Or9//lub/37pGlC9O+m7rKQaoX3lJ/JC38686DhUJ9GCSBrtnMKkyp+C33JOubM9cIZ8/TO9s0nk0lODcXLbbXMkTJ9e7G1vQ4T75kDf3Ue5UUeHgmzm6ZG6OaFmowXKugY0LitMdndodvdl3w5GpRqKjLoqZ/mVW3U8VkkcTNldhUQcFqQei09L7mcw6lVNNIh4vg/ROv8/VdWgxFKxCjF/YGmLM9rbuyVIpXXoXIh7tR+oFY6neNLjzZRrVUo5zPeskuCUObuW2tXSbks3INrb115O10NbrqeFO1f+hoHNGvvzHtYIKgjFLMWCElCDPsCnkyJzif5hyb66GwZzs3RzOnd1KSbqulgo3MsvHaM6j7xnA/Jkvs97YUc7Yxk8mrazqtNtM0V1tiZ43BLjHTd7JQ04wClV+HPrXQZuyhS7O+4XP6QftqdZqQZWohfdgyA7VWKqSbEDQzvrYOibkWSvomuPyJr0O91pLTvEbPGlcwUyxItk1bq/DWzYQRz1qB3h9Ysb5n9dgWRiYVwre9+Xqv1tzOmLi5gnUkBCPO7Qx9OFqtsLtp3AOH/KRTQMZKtWk2VoFeYnO2CDS0pi4HzRiT8mXNealqMkUmvcAsKxbq4G4d3U36E5JmWVS/soebItwgSjHZrB+ugSD0S9UunNf1uWienHtyqt9SBc0G7kLBXS8iph3L8Z0YbBfObrYLm7kR3PC7er/Us9zoAtPjYcHPZ8xNHdor2moj5QsGNUHr2HC22b64zKTaTWPPDLqhutuXlIAW4JgQ1pbN1rMC49TWlEt1FhU1q8q5bDnvtp3izTlXarLUS6E5mmX//oC3XPPpdlanTzezb4b844HvYml7Mp9nyh5LiY+dsjt/G+rirJSq86S4b5WtXXZ97BlsooM5XP+s19DH9tJdwwKlYmPmaWQjZ49wlNvIzVLUCx6lclndFe6eq07WJjUNWtpnshWeNVV337XYxRLrlp11kX0+QLZxDrdxtbmbyc+76q696v7K6toAeAYn1hkYTeHWtWXvd1QrhZGic+k+IIn6lTorKmO53G1T70Vzb7I47bprlNTr692dzuJ8srm+yMVNuSRSVyX1E8g+esp1c0X8v9AMZdNkTkezSwzGW6dul1h2F17d79X3xkdlXlZV1J/sJrG4bmVnmdBrmXndZ1Rwqo1as8am1N6wmeWmSs/u1gDpRV7XMJnh/MT61gqeTYqH1jzQ/JK7KlzUENyURNt069kseutLV5efglPUW196a6XoHvCsgZpSUDP20PthZdW2cUY37dnPFfEaTTkmCxvBtQVl7lm3buHChWvvvDOkSBg/dmz79u2HDx/WA9OVV165evXq+aOj7ljdhI3H3zh/nuRi2VtZtlV9vNm8yTJeBSm7bevWgwcPbt6yRaqW/ZOTzHHq1KkdO3bs3btX99sll1zysY997MILL6zbKFfG0m3kfJz11Lq59yNu2EPVnu1NnD1DynDPPffcF77whfjeOTUxsXPnzj179khfGe6mm25adNFF2dN9Wo3cQ61zBXovVmv/v70w0VV7/Xj8+LZt2+SIdIqlS5d+9KMflbNy/Ttzv7ad1u72938Lb5YK5ziHkPfAQ1VyD0tmEnf7eHftNrtqF8cutWX7tm0HDhwwRydDB3Pv9I5uYmJi0aJFH/zgBy9bvjw1FXpYsJv2V3KPGM5qdjF6OYP2MlsENrWazLRp06Y//dM/XbhoUVP5QuHg/gNPP/30+Pj4/Pnz7fnBrsNwaA4E91Dnbp/GWiG9PqsxCO2R4B88cODBBx80w8W2OLB/vwx37Nix0dHRq6666vrVq7XXWdb729jE8VFZkP3jnEax3ciU9xjWM2tzsLqnYK12/Hi9SbInLtckLVoUUzq7k7mxdy2KNoTaRxyKfBvuYEqRzdjDWca5CV2X7iMV7lU/M1Hb46YU0v+NjRs3fnnnjuXLl6+NtNWz7Lp166Scu/Fqte/uf3bTww89+eSTavuV1H+l56aBKuC/JiIr+fDDXHxWq+UieM989+7dn924wVXdq2rph48cWbNmjRpjQ7L/4IE/3/ro5z//+euvv97nzGqtTN2pa91E/k5yrl519l0sSnEN89SMOduS4f54w2edEaMuDD1MB8Np17MH9j+6bevnPvc5Bfl5qZ5vk53D05c2nM3MUl7qVhXkiDZs2BAubzkiOatvfOMbLvyIYJ7d6ZymbmTNXV0KeEsaInBXnqtJvhd7ZlIdrOfPz3t2dcpJvex+cSYwhX0bdOr0Kd0vFoK6XQcKuhJ0szzwwANuM+eL+1CbauuuPdd16R8nGtXPVNW8Law9kl7Hxsdvvf023Z6vjB9beJF7/LJFDw+6cxtbhV17dm//0mN6ftDjbEjMvmDewD3Rep/gL8aqmwuXk/toBsIKLT5x262dGG7bY9vrhotMH55JZjhF73fZXeOmxHkDBcN11147du60Jskg6Ilrx9M7v/71r6s3xKXo3m08sM2agF1aTnn38KNQRG7BWtZEUVOfh3SAu0blQXIzHVCM1O366KOPypVIjqunEQ8l3nnnnU888YScu1yGLlNFKXGe/Moa3q4/YYQQMcPexBy9Gl2LBgN2S1cXhUyzatUqWWrLli0KDpX+2c9+VokhZ24Eu4n0jO7+6dHSvSarljg3+uthb+p9JM3NcGasuCLBcPLsmzdvluF0bPycHWfOqOzuGv/IVH9Pwltq9rdSKzRLUQOpa17DepdddpmubYG66667dGFraeV5Foi8pvWry7k/m+E3e/3P4tRpH1KvhHuadRXMbJ1aTR87urBX5t6/f792aXjQrgR5PNVLD7jPPvts2jDTL9/NMXVzRJydGjdRVm3mVPVeTrfhbbe5wCPBRymyi54Z9OSge3bt2rXKINvpoSKRM+ObzgLWw1G3hUyjzuXcL2c0nLrAZDg9/qmqZrhwJ1rlu+J+u89RZrL/fK+L7wvr8kmsSRJAddY/8sgjRumkX3Qmw3L2cOqXmauFmlUxV4dYW98djXt0uYLpFuer5GqpWTqf+tSn7EPOWivFdmmty05r8+9Klx+59dZb5f3T1YzSpyGgkevQRx6ymLE08eBtb3vbLbfcYum6Jd71rnfp3pDLkBwyI/SGgDXMYS1XZYaTsXSLmcmC4TQ17uabb5ZiSgmGO3LkiB61e6NtRs4ScAV9zH0/9NBDEjTuLy9vu0TJXFPIaYIhTSSymX0CwfRmQbtfFG1K89imdoMo8vzIRz4yNjamvboSrrnmGnk5zUG9/PLLs1/TgdHQ7KJ1PAylzVBBPS2sX79eBnKzJLylTp8+vXXrVkWJFoeEnAh9ISDDHTp0yB78YgViw9kdpztRfdN68DPDmVvWIXYNxMcOiawmSTXVg7G6C813WZMUqt8bMnmNPewCEiMtv/M7v3PBBRcoCHGDO1HctnLlykBTgp5ldaW6twhYektANpK9ZB35cc0zUWe5UkwFu/SVriUoJUuZrBHAkIjQMwJmL1vbSWUd2UIdgTKi3Xq29nZzYx3KphR1nVh+Wbln2mbnRMYk5ibdNPdGKZqRLDneZZlNeUuPU7JTKTQ5IwEzX2zccL/E3WGyrx6M7rjjjmBoHWK+rj7VIZoQcsaTkmEuBGQCs5fIq5dE72KptETHinWpKN1yylI66qKLLooNPRcdOHYuBGQ4PTErGjRTxkXJcPYoaInBcNqMbReugfjYgZdFQE2SqqlxIRGQEHMwPnFKekDyGnuIiGFS9KYY4+GHHxZQc/StsHTxaa/m8OgQi33t2NacpKRBwC5leW2N7qn7QXPkwlmCIYIgS1lcrmnQ8i8hJ0LPCJhLCqeTFWQ4dfjFhgt7JVj+YDi9pTO0hguXsbBI1juscj7yUVorclPXqRK1uXjx4sAtFiSz5I5A2/vFHF3cHWb1Cpk1Nqj3mzVIokBFTZjS44sndxByqrAmv0lzPcLq4SE8sJqNgjk0Yi/Xp/tXb5zrIyjBgjmt8mCoHQyn6rRaxB4FzXCynQynwcZEzmDfwQDSYS3UJKmLUG2QhoNExpok+R95oZhPK9IOy+88W45jD6NjF5DWwXckLimNaGtc2xI11eGGG25IZOgcFjnPjkAAHoRQTrjEJWjvb/3Wb+kpTXvVpTEY71+GmuZIMDMF05jmdn8lEkOlbI6cNjV1xPr4w66hEuwyVpUlaHnllVckqwl873vfq01L14dZREltp0ZrrY1UeuutoUSWXBBoe79I84RN4029Y7Br1y5dEorSNfNB4yHKb1dInC0X1c+jkgnIug2VEkxgNZI5lKghEb3AphTJX/ziF63XII9VHjCdgwXtrolrZ7sUTwbDab6rPVubHc2yrQfGhQyqrM4OVU0fuVqxYkWoozpB9MSlJskckdID3pCn64J/J6zrpfajwOlgybnfe++973vf+6SUWv277757OK+5ftjEnTO2i93zQRPtimXt1RRbDXdoMrR6DRUxWhwS8iD0hkDrDSJLqVMwPCi3qiHDKaqX4b773e8Os+FESfQCQLl4sdK85EsvvVQftnrppZe+9rWvSdblrfnK4YlHecIhrWxJyTiBVtuZZ4v9W8LE+qKlXm/T1ETFpfbKR6ijlZY4NuxFmCMBAyvIMeHW4SmdRRmUTT3E6rJcsmSJ5N///d+fbux3jlpx+GwJhNsktqMVYrtkOL1bpe86aFPOVsNW8V7LM9uTDkB+NUmq+wsvvKBL+pvf/KaaJH3eSoGZmqQbb7wxVLAHfPIde5h3SFx8CWqK5OTl9aMEavv1bGSDpwExQtoEzBzBRrGgXWHTstnnJp955hndGBqwCv0WaStJ+YFAsEhIkSDraLEWum0GGU7zR2U4PVgHw8UlDIk8XXhmHwETBLWF9oafKGmWmqiKpy1DgmjAqinbtdZIZlWirSVYnjin3jFQuL5v3z5NUNS0B30EJS5EOcOxcTry3AkEsBKCXdretpZT8aHmaespzcbh9c066zmeuyaUMBcCZrtgzfjmsmLV6SzD6cHaxuGD4VpzzkWN3B0bwmyNBdkgnjVJqogCEvudrt4gymvsEV95uv7CJTjdpaAMiu30hKQMeit9umykp0QgGMi8vMxnKbZOXOsKF+1DQHo4CzlTUoxiEwRkkWCOIChPMEQwpSXGh8twn/zkJ5ViLizeNSRyTExVNlYazlZDGHZJ1qOndin8sDyStQwJogGrpgwXLBuEUEczq+Ux2fKEdEUgStHoh10MdqDlD4UgpEQgWKHVcOGMymPZ9PBg83bUKoW9CP0iYEYJZ09shnQJCu/1eC0hPE7MYO74wIGUDZQ1SSaLht7FVYo2Q5PUg7rnNfaY4VJrpRYuNb1ypL3M5GlF1LMUs0XCfIlNKaOnWCXqpajWXT1TdWhPFJgHQShiOUFGNjWzKl1Di5LDB68SOQd+M0HJOpYMju0KoCQkUgYezqBWMBg9CKGmYahQu+LLIGSQozM50Sq1FhUOQegWgXAzdlignh90iMapOsxPth4QaGtEJVq6re3BT29X2204zDeXZpT0wCidnCKvsUd8YamethlXWNP79GpH7NAl22RN9TvGOZF7RqDVTDq1Qm29eRm6/SyP/YSTwvGe6caJOidgNtJrDLfffrsMJ1euJRhOQ1vDfIvFF7mNb+jXG+ylcxEWKMn62IgE/eiHpRj5+MDObUHOLBPQvSCzytZSUs+scnSh19zMHT4Sar6Oa6CX1gxeqxW7pvvqBdxYGTk63cgyqH6KKk5H7iMBGS7MpDA1ZDi91ivLmnG1Vjullxm01778rpQ+Ktz3U9vvCAlIokkyROF3KeyOaL0vuqh//r5zJRzusvLPOmFtRLQZ0MhNKNLQdwz1Vp+ehDRH87HHHtNahyslZEPoJQGzl84YW0o+XVN0dOnry/caG1WIqB8AseFRLNVL63R+LjOfbq62hlM5w2y4cG3L1WgUSHOO9RCjIE3zxTVnQ58q3rhxo3ZpjNtmAgTs4cCQgpBrAjKoxj2CWU+cOCG3pkW/P6CwU+m6ffSrZxKuvvpq++GpkDnXFc+R8gKumzEOEaW8UmQmPS3Ixel3bzU2pUZKX35Xup4lZKwcVXCwVZX5wgsMVtNgOE21kvvVOwz6AQZl0/2lt8/NuMN8l+njiprQnmiS7r//fpFRk2SzCiUbolRB5S/2CDgkyBfYpgS7qkKKmnxdhXIZGv2QZ7E2QENvn/nMZwJfHcLSYwKylxbzF3ZqzaPVdwzl5XUDmB0tXV8ICD+YrUN6rCenOyMBM5xusT/5kz+x+8vWspoZ7owlDHCG4Ijk6DXWr+7t97///eEylpfXBw0tT8gZhAHGMlRVk0GtU9ZqrcdW3Re6EuTuLORQujJocExxqXnFOL/2ckmkesEYXpE3QWsTlHLffffpAwB6hNCiRHuE0NiUfYfUsqWqG4V3SMBumWARvUAlw+mdXhku+FuNeIQPyFpiyN/hWQYmm6qvZ2NrkvSFvVAveSG9fR42TUiVUv5ijxhKuLbUFaGBDnVRhBQ5en1FRDOvlK7Z54qAly1bpsBX6Qm+bPaAQLiI9R0kjeslJlPpKyJmKY0DyoK6DcKP3YQDe6Akp5iBgCJ23T6x4WQaGU6jixqz0suyOlaGU4duojt/hjIHcpddsbqMJaiCEtQcaiBIbaE8vvpQFXjEk26DywrCQGIZtkrZ/RKaG7sqdCXIs+mXPY4ePSogymOtksFJBB5K5JJI9bIJeNXPpaZH5rAUGUtm+s53vqNWSdMjpYMeXuXc9Jhhbw6EA1NVj8LPSEDBvIan1OIEi6iRkuHUKpnhdAPaLSbHa/eglRnyn/EUg5dBddfPTqhJ0rirno2tSdLFr5rGiLSZKqV6AxnzPbFm84Inb49TsiknMCWUDHtnEBKH5Gvz9Ma/PO+6d48sXZgvtc0c8XoG/TvMNkMJfd81eXj89af/9/nrr+27Jl1UINxTcZkhMQjx3uzLXfR7MxMIe02I13OkdHrD18774H/KnU84Y61zWq9g6Bkq2EmeGQ7P1K7Xdv69nl7Ou/7dmdJqOmVi8m3vwTgxlqcrMEfpXfR12al1bNBOtJpt/k7K7G6envm99FC8tvM5hTDnXf/brWTy/a656iNqca3CZojYJFiipRjlkC0+FjklAoG2wddZzBbBRonzhhlZZjtbJ/Kw2UcCZrhgVtMkJJrQR/X6eGpjMjOBsNcErcN90UfNOXXXCZhlW4u1iyRcKhJMbs1JSnoEwm2oU4Q7UbLZQutwY8ZyevpQ8hwJxAad4YYKu+L8czx1vg4PBILaCRStGULOLgp5jT0ES4sYaR3jsE1jFwjGiSYnjopLQO46gUA7CHaKYKD4jErU3IOwS4dIThwY50fuMQEzzXRGGXJL2eXaapEArXWXUgya5WmbgcQ8Egj3SMKyZu5wqUjQkscK5l3nhF1UHTNZMJzZJV7nvcoDpn+rBa2C091QwbIDxmFW1ZkBTqA3HdhZnWjmzHmNPQKjttVr6yymI962BBJ7QKCtRVpt1zZbD9TjFG0JtBqobbahTWx7uXYCre2BQ4txACoeDBqERKWmS09kYzMlAq38LaU1PSUFKHaOBGZrqdnmn6N6+To8hhPLKdUi37FHSlAoFgIQgEDfCSQ6n7QZp8Ry31VFAQhAAAIQGCoCoQ0KQufVJ/bonBU5IQABCKRLwJy4rROdT/GmMmjzLDx+utpTOgQgAAEIDAeB0CSZMKv2iNhjOK4RagkBCOSBgDnx4NODNzchpCey5aFm6AgBCEAAAgNIINE8dVJDYo9OKJEHAhCAQI8IxPFGItjokQacBgIQgAAEINAZgdBOdZbd5SL26JwVOSEAAQikTsD8uCKQIKR+Sk4AAQhAAAIQ6BUBYo9ekeY8EIAABDomEAKP0KW0adOmFStW/Mqv/MrFF1982223HT58uOPCyAgBCEAAAhBIi0AYru/wBMQeHYIiGwQgAIFeE7DA49SpU9dcc41ij2PHjunXb6TE7t2716xZ02ttOB8EIAABCEDAE1AzpIZJfWHqEbv22mu12TkYYo/OWZETAhCAQLoErPco0Ye0detWjXKMjo4+8MAD//iP//jSSy/de++9y5cvT1cVSocABCAAAQi0I3DPPfeE4Xf1kR06dChstm3FEmUQeySAsAkBCECgbwTkxOW4wzwr02Pbtm0StmzZsnr1aku55ZZbNm/enNAyEbEk9rIJAQhAAAIQ6JzAdG3K/v37v/zlL6uctWvXfv/731d32JNPPqnuMHWQKbFtK5Y46Uhim00IQAACEOgjgUTgsWvXromJiVWrViUGOhLZpHBrSh9rwakhAAEIQGDACFjX2Pbt21WvO/0iQYlqnkILZXlmrjixx8x82AsBCECgnwSOHDmi0y9btkwzr/bs2aMAY2xs7Morr7z++uvjYGO6Dqp+qs65IQABCEAgtwTiJsYqoRT1henVDg1xKPQIiXEVW4+K95pM7NHKhBQIQAACfSMQdxpJfvHFF6XKQw89JI+/aNGihQsXaiTkr//6rx977LEnnnhCDUC1WtUL6LG7j0voWzU4MQQgAAEIDBwB+8SihuJ37Nixd+9eNUxqca666qobbrjB5lx10gDxvsfAXRdUCAIQyDOBOIqQfOLECa3l3/Wi+b59+5566qnvfe97l1566QsvvKB3++Tl7ctXqrFkq3dcQp5JoDsEIAABCPSNQGhTpIHJWiv20FqD8OvWrdOLH5I1OL9x40Z9At7CkrgBsqNaK0Ds0cqEFAhAAAJZISA/LvetqbThRXPNufr0pz+tdPn948ePB0WVomU6Xx+yIUAAAhCAAATOSEANSiKPUtQRpg4vdYqpSXr++efVHaa1ZKXry+/6Inx8SGsJtpfYI6aEDAEIQCBbBMx3X3bZZUEtRReXX365xRivvPJKnK7E6Xx9yIYAAQhAAAIQmBWB0LJIUEOjLrD77rsvlLB+/XpNuFL4oSnBIXEGgdhjBjjsggAEINBnAnrLXBrEnUly/XLx1hLY/FpTMUy+6rPGnB4CEIAABAaawNKlS+fPnx+qqJZIKYpJxsfHQ+IMArHHDHDYBQEIQKA/BGxYQ+deuXKl5J07d548eTKoYr/4oVfP5e5DYqVSsYAkHBt2IUAAAhCAAATOjkDcpmgCsPV/xYkq1nrEQkCivYkM8amJPWIayBCAAAT6ScCctdYhiliyZMnHP/5xBR433nijvity4MABveG3adMmZdAwd6yrxj30zSul2LHxLmQIQAACEIDA2REI7ZEO1wRgBRh6rfzgwYNWmhosvXyonzbXpr5/Za2YDlGTZHLrSfnGbisTUiAAAQj0h4C5+ODoTbj33nvPP/98fVRXUYdcuRy6Rjw011ZDIkHL4O5DCgIEIAABCEBg7gTUvqgx0mKCPrp4++23f+ITn9BPfFxyySUKPDQUr4bpYx/7mL4Cr2w6o3KqL0wBSNuzE3u0xUIiBCAAgT4TCB5cwl133SUvr0EP6WS/8mF7tZloFWyzz6pzeghAAAIQGBQCcWOkOmlwY/Pmzfqu7oYNG6yKevV87dq14dcGlahDEkfFMIg9YhrIEIAABDJBIIQQ5r6lkwRNtE0oZ9kS4UciD5sQgAAEIACBORIIjZHK0ai7IhDNs9J3UBR4LF68OOwNjZeyxXJ8dmKPmAYyBCAAgT4TCIFEJ3qYu7f1dF6+k3LIAwEIQAACEJiZQGhlrNHRhCvlD4l2bAhCtBnLccntZ2LFOZAhAAEIQKBnBKZz1lJALr5VjTgxlltzkgIBCEAAAhCYLYHQsqh5CrIVos0Z2qzpTkTsMR0Z0iEAAQhki0BbFx8Sg5AtpdEGAhCAAATyTCBuXGJZdUpsdlhLYo8OQZENAhCAAAQgAAEIQAACEJgTAWKPOeHjYAhAAAIQgAAEIAABCECgQwLEHh2CIhsEIAABCEAAAhCAAAQgMCcCxB5zwsfBEIAABCAAAQhAAAIQgECHBIg9OgRFNghAAAIQgAAEIAABCEBgTgSIPeaEj4MhAAEIQAACEIAABCAAgQ4JEHt0CIpsEIAABCAAAQhAAAIQgMCcCBB7zAkfB0MAAhCAAAQgAAEIQAACHRIg9ugQFNkgAAEIQAACEIAABCAAgTkRIPaYEz4OhgAEIAABCEAAAhCAAAQ6JEDs0SEoskEAAhCAAAQgAAEIQAACcyJA7DEnfBwMAQhAAAIQgAAEIAABCHRIgNijQ1BkgwAEIAABCEAAAhCAAATmRIDYY074OBgCEIAABCAAAQhAAAIQ6JAAsUeHoMgGAQhAAAIQgAAEIAABCMyJQHdij1qtFrSIZUtsTQmZESAAAQj0kYDzXDX9K5QKVfNiTV/WR7U6PrW0dQ7WK10rVEperBWqHReQ44zWspyxfUlkSGzmuP6oDgEIDBiBugO3VqlSKzbde14qmmhGXQ3aqd5p7LF169aLL7740KFDcSEnT57ctGnTihUrfvVXf/Vd73rXunXrjh07ViwW4zxy9ImUeC8yBCAAgT4SCN6qWiiZrHWOHk+LtULR/5N/LxbKrhYuxTn2M9bCMpwxWx+tM8OpJyYmrrjiittuuy3RvuzYseOaa6555zvfqQZLe/fv3x9nUGW1mdMqz0CDXRCAwCAQcN7c/eeduHyVtuXR2z69Z7K6tUpRPV/VmpQOWlvDmlB3JLHddlPue8OGDdp16tSpOMONN954+PBh8+baJae/a9eub37zm4sWLVI2S4/9fnwsMgQgAIFMEPDuXiMfr274ilx+sVqslnPj6+Xkyw0f/8bL/3KeHK+qoyGckmu3zAm3hRx25c5Fm+a33nrr+Pi4tTWqoCVu3Ljx0UcfDZu7/bJ58+arr77aIMzMpC0oEiEAAQj0hkClUC07b+Zijkqh+G+P7Sudf26pVqx0OkzQGzWnP0utJO0r5WKpWlGmys9On/uepW1znzn2UHSh3iM7WP5dgnl5dTtp19KlS7ds2aIG4Nlnn/2DP/gDjYQ89NBDDzzwgLLh5dsSJxECEMgQAdc9457Ua8Xqz123TC6+WC3VSlXXbZOfRfGGltpjf1ct1FzTpcCj4ajbVsJ8eNtd2U9Uy/KpT33q4MGD1h7FCn/3u98dHR1Vk7R8+XINwqvlUiN1//33W+xhtc5drBVXEBkCEBhgAiU/+df5KA1e16rzViwtv+MX5NDnFfMxjdb1fEVN5xv7jpam0fzMsceaNWsUZsjYwlEqlUKjJRf/jW9846KLLpo/f772Xn755R/96Ec1BUseX5vBy4f8A3y5UDUIQCCnBJyvdA/qcvXV0iULJfnH+PzURo7eOXfXLfbmW+aVa9WE/tVqVX7b6iNv7GrqF5NtM19eWhOAv/KVr6heoSImqC6PPPKI5IULF0pWj9j69evVfr3yyiva1KJdJrCGAAQgkEUCzp+7wMMt6kJ6x8+PLF3o0rKo63Q6qQdMfXh+OP7IuJRvq/+ZY4+1a9cqwNAAt9qnuImSrEGP+OSamqVNS5SXt8xBiHMiQwACEMgCAefT5RrdujGq3dZT+ixZXTnNpbUGbaplBSK1eb6pskftOPAID9/K/PIrP3r88ccXjI7dcccdIT2rFZyi12WXXaZWSbN8FYSEJskExRsSHA3/XseBAwckJ9qpKWWxAQEIQCAzBDTl1+viXXqxMKK+Mff+Xm6CDzlf6atXJ50f1nCFC6SUpOljGo+fspw59rj55pvtiNA+mVu3TcmvvvrqX/3VX6kjSo5eXl6tQsgf55xyWjYgAAEIZISA71Py37nyft95e40enNk3ZkH9il5O8XoUNdGqXCpVamX3ml/9Cx/mgU3PuscuFL76ta8+8cQTX/3qVxcsWPDDH/4wC7WYlQ6X+OXBBx/UUaqgrVW7uLnZs2fP3r179Qri2NiYzQGe1SnIDAEIQKD3BDT913lvxRpybFU9s8utN6OR3usz2zM6zaOer0qxWFYNNBHYN7JxaZ22r/LsGuPWkebf47Xe7dNUKyv0Ix/5iOZihROE9iCkIEAAAhDIDgH36OoijYK8vJthqy3rr8mOijNqUvazrZzW0v7NamWkVHa+X/Vwzt7iDSvgxIkTGuh46H88/KMf/cge2TXiMTY65o7N4dcIrWqta1VHI/DhHcXrr7/epmAZhDzW1DRnDQEIDDwBTf11jrtWnHQfK5Qv12dP3KcLW5/dM4uiqWxN4zbaqmhAPjnqUeisb0/+OrjsVl9/5513ahDcOpnuueee5557Lu5nUv5wbGZhoRgEIDCcBHx3jBvglpf36zx5+dhkqki1VC7Vf6TE1SgszzzzzONP/MW2xx437+1DEg3zTGpMYN939rls/rtYIX+PhdBAvHVswW/+5m92cnYdYtmCEB+lF831uUV9/mT79u2al6VQROM8qqzyNAjE2ZEhAAEIZISAd91+2P01aaSvLrp1RnTrSI2msr4PTNq3Bh4qqKNxD/PXbb28NRvy9Vquu+66D3zgAzt37tRL52GKrWWwdUeKkwkCEIAABLpH4Ac/+MG3v/3tcrFWbQyGaBB7pFT6ml/ssyRumL+vi9RQ4PFnf/ZnnTQW1qUlfUMskThqiV9Wr16t3/rQp67UKtnkYdqjvhqZk0MAAhBwBDqKPZRPLju8sxjIBXcvQYmahasIRL1NmmsbYg9rJEILEY5FgAAEIACBtAnIOWtulZbHHv+Sfqbp5X96RYPgGsuXz77vvvtWvHdFf4OO0IgYh8TmDHDso4shQ9smRhOANedKb4b8zd/8jXrEdIhla5s5FIUAAQhAAAKpEpgyNN/2TBZXyFmbEOcxDx6+dahd+hpva4iCo4+hIUMAAhDoGQFzv/LeH/nwTf/w4g/37N21YsUKS9y3b5/ea2x17D3TTSdKtA6JzRk0sXZHGRL6h00T9DkslanMrQ3TDIWzCwIQgAAE0iNw5tjDGoN4bdpoLFufTtePCQaf/uUvf/nIkSPy8hrujjUOjUGciAwBCEAAAr0hEJ7pr3jvir27NTK953d/93cffvjhiRMnw67eaNJ6FmsgQjMRhNaccYrUVk6ttVi6ftT8Pe95j9ogK0Hpmm2lVkl7wzh8XAIyBCAAAQj0hcAs5lzJoSuuCFpqOFvv8F177bUrV6684IILjh49unv3bu3VtKtVq1aFbBJC2xAnIkMAAhCAQM8I2JO6ne69//k9K97z3pdfflmvoSsI6ZkObU9kDURoJoLQNnOcqJyqVKjX+eeff/z4cfWIqQHSt60k79q1S+MeaqrCl9/jw5EhAAEIQKAvBDqNPaScHL0WCebrNVdYPziozzVu27ZNKaa9nL4+chUag5A5TrGcrCEAAQhAoGcEzHvb6Ux+h1/y6JxDi6PqhHrdcsstBw8eVI+YftZD6VYvjXh87nOfsy+/57GmPbs8OBEEIACBnhHoNPbYsmXLsWPHNKYR3LcmVmm6sBy9/Xas+pm0135WNjQGqobkcEjPasWJIAABCECgEwKxu+4kf9/zWIOid8eliUbdgz7z589/8sknNc9KrZKGO7SpJimebZW7moaqIUAAAhAYJAKdxh5hGlXCfcu5a4mJJDJoV2tKnB8ZAhCAAAQg0CEBa1D0ex36aanWQxRsxPFGawZSIAABCECgvwTO/K55f/Xj7BCAAAQgAAEIQAACEIDAYBAg9hgMO1ILCEAAAhCAAAQgAAEIZJ0AsUfWLYR+EIAABCAAAQhAAAIQGAwCxB6DYUdqAQEIQAACEIAABCAAgawTIPbIuoXQDwIQgAAEIAABCEAAAoNBgNhjMOxILSAAAQhAAAIQgAAEIJB1AsQeWbcQ+kEAAhCAAAQgAAEIQGAwCBB7DIYdqQUEIDBoBPQjeqFKksNmEMJeBAhAAAIQgEDPCHTSDLlGK2rFYt2IPWIayBCAAASyQkA/ohcct2QtplkQwt6saIweEIAABCAwiAQSzY01Q4lEq3dILJVKobVKICH2SABhEwIQgECfCch3m/uW4zbBFApy2NtnRTk9BCAAAQgMKAFraNo2N3Giya0MqtUqsUcrFlIgAAEIZI6A/Lj8tZaEQ7d0U1d7M6c3CkEAAhCAwAARsIYmNDeJJmnPnj3XXHPNxRdf/M53vlPCrl27rOohv4TEIYEN4x4BBQIEIACB/hMI/tqEhB83Vz6dQ++/9mgAAQhAAAKDQiC0NRJCYyT5nnvu+cQnPnHkyBHLcOjQodtvv/3w4cNW73DUdBiIPaYjQzoEIACB/hAwF5/w9Zs2bbriiivUw6R+Jnl5+fr+KMdZIQABCEBgOAgkGiMLKg4cOLBjxw7tWrt27fe///2XXnrpqaeeWr58+djYmGXQrpnDj5HhoEctIQABCOSDQAg5zH1rPTExsWbNGgUbenVPe7XevXu3vP/3vve9fFQJLSEAAQhAILcE1AxJ99A2bd++XZt33XXXHXfcYbsuu+yyJ5980upn2UL7ZYmJNbFHAgibEIAABPpJwFy5aWDytm3bNJatLqX169evXr1au5Si2KOfWnJuCEAAAhAYJgLWHp06dUqdX6Ojoxr0CLVvbbZCoBLyxAKxR0wDGQIQgEDmCCjSkE5btmzRoLYp9zG/SI79u+TMqY5CEIAABCAwQARsuu/KlSs17Wrv3r0allfgceWVV6pfTAFJqKgS4+YppJvA+x4JIGxCAAIQyBAB9TDJua9atSoEHrFy5t/jFGQIQAACEIDA3Am07c+y2EMfuVq3bt2zzz6rsyhl48aNK1assF3hvPFgSEg0gXGPBBA2IQABCGSIgD4kIm00m/bRRx/91re+JVl9S+pkuuGGG0zL4N+DkCHtUQUCEIAABPJJoG2bcvr0adVGPWIa6HjggQckK0TRZ6927tz5oQ996Nvf/ra9ca5jla63E9tWvX1q26wkQgACEIBA2gQSXU0Wezz44IPqWDp27Jj2qsNJjl7fU5f3T1sZyocABCAAgaElkGiPAgd1gd13333aq0Vhht5FnD9//smTJ9U8KY8FLVrr5wXDIbFA7BHTQIYABCCQCQJy6KaHXuyTrLV6mPbt26dPGT7//PNLlizR2+e33XZbrKu1AXEKMgQgAAEIQOCsCVgU0Xr40qVLFWxorxY1PQpFlKJs4+PjcWbtjTeDTOwRUCBAAAIQ6D8Bc9a2lk9Xv5FkvexhX7iSfhdccIF1OO3fv18jIUFjZVP+sIkAAQhAAAIQ6C4BTQBWgdYpZiVba2Xj8ApIQjMUhFYFiD1amZACAQhAoJ8EgsuWTze3bu7e0pWiUMTm0aqTyRLjdT9V59wQgAAEIDC4BNT6aJTjhRdeOHjwoGppTY86wuxHzfX9K2uztCsIrTCIPVqZkAIBCECgnwRil21Rh3UphXRtmse3UW/J2mXrfurNuSEAAQhAYIAIWEOTqJAmAKvFufXWW7du3apfmtq0adPtt9+uPDfffPNFF12UyNx2k9ijLRYSIQABCPSNQOzu1Y0kPZ5++un4zXJ5fCUuWrTIpthaTBIik77pzYkhAAEIQGCACLRtVvTN90ceeUSjHxs2bFizZo1iD7VZd955p94477DqfGO3Q1BkgwAEINAjAububRxD0YU6kxRs3HjjjTfddJN6lRSH6GuG2qu3PnqkEKeBAAQgAAEINAioU0yL5lmpU0wf1dXnTxp7OvpL7NERJjJBAAIQ6DGB0OGkziT1MCn80Kd1TQeNeChRrr/HKnE6CEAAAhCAgBGwgfezoEHscRbQOAQCEIBAWgRsuCNR+lq/aGatPnv19re/feHChcrQNmfiQDYhAAEIQAACXScQGqAgdH4KYo/OWZETAhCAQOoENNwRXHkQ7KzLli0L07GUEgZGUteJE0AAAhCAAAQ8AWuYQlMVWqXOmyTeNedSggAEIJAtAsGDB59u+sXpktUAZEtvtIEABCAAgUEnEBqm0AwlusnOCIDY44yIyAABCECgDwRCaBEcfazEbH19fCwyBCAAAQhA4KwJhAbImidbd14asUfnrMgJAQhAoHcEEt585s3eqcWZIAABCEBguAkk2qPQU9YhFWKPDkGRDQIQgAAEIAABCEAAAhCYQiARikzZ126D2KMdFdIgAAEIQAACEIAABCAAgW4TIPboNlHKgwAEIAABCEAAAhCAAATaESD2aEeFNAhAAAIQgAAEIAABCECg2wSIPbpNlPIgAAEIQAACEIAABCAAgXYEiD3aUSENAhCAAAQgAAEIQAACEOg2AWKPbhOlPAhAAAIQgAAEIAABCECgHQFij3ZUSIMABCAAAQhAAAIQgAAEuk2A2KPbRCkPAhCAAAQgAAEIQAACEGhHgNijHRXSIAABCEAAAhCAAAQgAIFuEyD26DZRyoMABCAAAQhAAAIQgAAE2hEg9mhHhTQIQAACEIAABCAAAQhAoNsEiD26TZTyIAABCEAAAhCAAAQgAIF2BIg92lEhDQIQgAAEIAABCEAAAhDoNgFij24TpTwIQAACEIAABCAAAQhAoB0BYo92VEiDAAQgAAEIQAACEIAABLpNgNij20QpDwIQyCGBWqHSqnVNSfq/Vqi6vdXWDM2Ums9l+eupPr9Lry+upJrfqidWa7U2J21kd3/r+X2Sz6xDrAi/19Lre2uFYkPDcEq/ixUEIAABCGSfgPPcrp3wnl/+vFaqp2Rfda/hlJbHtZuFiqtBo2GKakHsEcFAhAAEhpVAsVhU1RuuU07fef+itpVcLJQKZTUDYXdbSC6XLfVSfP5iwRXiF1+SO4sK9ImlYlHFuoQooHCbYZFWYZfLXNAhXlGfQ4XIvRfl2RV3NJJVXs2fJBSCAAEIQAAC+SAgh16UC3eev1qsOF8eOpUyXwHf8rhIwzVrxUK5Vpw3KanRMkb6t0mK9iJCAAIQGHQCFhtMCS1KPuQoKiZQ5ev75VYbz/QhHgho7HHfHG7IFo4N2WxXvUBL9aFDiByaORtS2KWjXJChRYMfYa/cuvrGpKm00/8lp3NDzUYm/kIAAhCAQOYJmOtW82NO3LVDztfn7UHd2ic37lGtqoFqN7w/knlboCAEIACBFAnIy5vHf+0rB/QcL6/vxzvqZ3R7NapQU9eTogDfo6OH+zDI0JBVQlXH+gzFYkk+17cebvdItTbpGxM3TKFUN5ThyqxqMLqqTR8uKJrR0a7BkeTyaKnKb5dKIc7RUdqs1KrzND/MNHY6ukNM1+pPTvkCnS75a67qvPkDAQhAYHgJyJvLg/v/ym/sOzp55HiOWLimTar7Vkkt1xs/PD7vNxYW3Ih9cslbOJXUn20IQAAC3SegKKDsQoVCreKCgsmfnvi3pw/YaRQVSAgRgsmTPzn5xleeM1nhgWKAeh4fJ7go46cn3/jbwxZcaK+CECW6cMPHFq7Mn556Y98RbSnA0LEKPKwErW2pHh1/89AxRTGTPtjwgUpjH38hAAEIQAACfSVgjaN7T0VSsTjvFxec+8u/4NrLloVxjxYkJEAAAsNEwE1V8t7xvOsuU2zQdJS1wkhRb1OUFCqUjh5/429fPO/6d8dgLPywlDePjE/uO+ozKOzQUEZj8QGMTvHmkR8r/Djvg+92ox8uqHF/zVPb+auHxis/m/i51csaR7q/dgofnhRef9qlnPfB356ipMvkitNSOTKuM/tD6FRyQFggAAEI5IuAtR1qFNRtdc6KxSNLNG6QmxpoepVv1Py7jmqKXv4XDe2rA6916IMmKjdGRVEIQCAVAubZ3aSqUHz11ZMT+w8crM9U1bwovQ2iMCRaDh06ND4+rgQLDBRJVEv1F8dVkjp+JiZO79+/34IMe2GwVCorm1v8yMmub+1VNhcq+MRqoaRXC/3u+urIkSM6hcvgF6VKkpJ6Q8QdVijs2bVbp9WbiCpBR7oIRIGPxlLiUpAhAAEIQCAPBMx1q11oNAres7s5tPlYTj7UMosAAAoKSURBVJ169dln3QQBdYhp7KPeDcecq3xYDy0hAIGeE/AP8yH6KP33+zccOPCsnvk180qplVLVd+fU1Tp58uQf/dEfHTt2TNtKt/DAghNlV5yirp6Nn/1jV4LLUdV0V7lhF2lo242lFA4feeGeu+/WS+IKJVzo4N/PiE8xMTFx99136xQh0R1asbZJUvHwkcPr1q3TsIz8uzufC0bc4rI1clkKawhAAAIQyAcBOXQXergup1LNtT+uRcnJ8scbPnvw4EHXIebaLfWEVVwD1S52mlol32K5NszFLLaRkxoPn5p6jvGVVkAcx8SxPHxQslBjd/e4qN8W96zZ7ocj6rv5038Cdsv49zPqylRPnpoYnb/AvepR/8BItWpvmTe0PX78+MKFC22rHngUCmVFBs7cbsLVqYnTFyy4QLKLOFSIuyomtdf7Vud1FVQsutAPprtJXSqjolPoi4qNM/gMixaZH7a1C1nqDtudYvyVYwsvWuTye48tZ+/eb7ccTo2cL64NqnheqqCBzXmNBl39elftoFczh/ULLk6Cc3T+14pyWI8hULnuudUjJX/uuph8gm99slZ7a5WkVRDUX/bW+WM+bPIPQb451N5GMzqlBlNiD9c0+vF9uX3V2T3dDkAbNqW+g7NRcjM8FBPLgvZkI2vpKphi0MGpbY5q4m8Zd9O5hyc9e6rLu81HHnJUoUFX1W6Z0kjTTKXR+aMrr7rKPc3LhHXnr89VNd3h4sVLli691EIBax6ct/Txi8teK4yOjq66aqVS6j/6oT/FEX2r3Y1QuAiksGrl+8beusDfs3qtXI1MWdO6dFO7o11qYenSpYsXL/W/6VFvgTT04kc13F4tq1atGh1VgOT26jTO4/s+Mtub+7Wrq74Or1Eh3UVMI8uBPRPXZw40HhYVvVdxfSL6aJ57mI183bAgyEs93XdEXBPiHsXLVff2nhx76HPKVC3qcVEIkAqu1fsvq66qBxFujN95cOnvq5DUvfmoOuk/26jiXJJrdHWdtj0kWQTbfSGgb35WChX3+WR1qzsz+yWT8XFf+PTrpDKHt4V7UPW3UaWqD66yZJWAH5eQctWKHnL9U79SZMGivlUVeVV9eyq2o49KpvzSuXxlpexjFT0r63gXebqHZutolOzGNNzos093RbvT+UulIJ+rG1m3s2VwTwd+0feu4i+jyx+7F0kai9dcarttt9L1VlH04YKgRqUaWXP4V6RcpTxDgaqT8lFZDmszFCrr+owfGQbgIhwQs7nxWy2+M9k7F/m6AanawFVjxLs9VUuP4vLt+k+uL8tuT77ZjBCEekyiK61YmNRVp0aw0aLF5mrGHiPqoPX9du4alc9Xbh2S5UrH9RhC2f0ish5O9F/ZPeT6ploPO0NIIlNV9j+ArVvHPWa6/zQNpnFzZkpPlDEC9XGJWkljEnKaspU+yeEe310njLoJLZd7C/xN/+nb2Jp1J+uekPXB3JIOdF7WxRvubrQS7CUQX7IK87en29AZ3It4tvhjdHr9EEjdSdtZ9JndcArl9Mf78MUf5q4x/yHgZtNUKlbcK/EqN/d+wFXCD+morpLrrOp4DBvrrBHwP5MZlIoDkZCI0AcCZT3SOUfXcGdV38PcB0U4ZScErF1wXVjqBZs62N3J4b3NY02bzhmaKv9jgv7mdw2RGlYf9bZo1WyinKv3rabq6ny9D5PdD2qxZJJAuaJuVj3g+OtU1nL28/8yqe0QKeUNUa9vrTZSKow05/APEYbcVLXe4VI4Z7IiH6lbSqG8lB8bm7/wwl92Qb2/w0aq1XMnnTMMHlbve8yfP9+q6ROr52okw3IrtVobm3/B2y98mwtF/E1aLpZGJn1ZdkyhcMmSpS67O5ueC1zco7PYTjvLokWLxsbGLEUZ1SWm6MTucivIlaDFxUpuUcemnjLsPUWfkOOV7+0z76aauyjL1dHqmeNqDazqsoxm/J1jV7O7St2d4i/tga1ybirmwg6/OB/jbiFzZbnRf9gU9UaadO1G3d/V/2SVg270oKre91j4tgvrt76vQklfqG/0qcU1aP6+h3MTchmurXUXqmrrDsB7xLSyJL85T46+MhIM1HiCyZKOQ6mLDOEDfTez3/8M3OsjhbfodvIGGkoi2a50Y5jiDf1auH/p241dFAtLtCxeIpfqHKtcY7n4Wrmil8e1WOLq1auDwzVhstwcplA/jt4IWbL0UsUD/krQ6HNtUqdwfflaOd96733rYzR611w3dbzYKex0Sp/0Yx7nNa4kabX+0/eqIJVmp3B5ykWVETbj0nInuwbMv+zh38P3j0/cRBm24pv6YFuxeK6ubXfLOJfn7hxMlgGTeXs4uzjXViu8Nq9qriwDqqHCFAK6Y9RdpZtGj+buPvK3TwbvI2uVQtvkriy//MbSJYuXLnGiT1D/uDWOtjdeN2MPd036AlTb158+4KYEqJV1L5w3x0biI5H7S6D049NvfufFySPHg/mljzNZf9Xi7I6AXIamMOq7RdXCz04Xf3L69aefwy5ZvTTqN015svzazudc2FjwL81qAMHZUVq7B6jaT06eU5unDLHPjeXKz06VK+f8686Daic0E9KuAjlQ988XUfmXidqP/ZWg3ixNsKoPWTapVH86Uf7nV3WKkBRubSeUapVD/6zm6PWalJRGerlDn+51nr04UtabX074yYQ6mczph0JyKrg6avGRoQzx+t8dLh15RSM/9n6L7WSdIQJ6f+nI/9HN80bt72U7N/JR0jVLe9RnE+kF3mq10rhx5C6qZU0LrhRjP9NnFTl9goCcnt4SLRUqPz1V/fH/q/7cudov957I1fdNizeklunmIiXXCLmv0ru/ehW5WKqceLW44Py2H9tJBCVuxP9fd3x/XmFSP06oo13r69+57Hs9USBBQObRvDqZxz0YOYvbfv3J3DWa0HzgN933GmruWdB1/Om/arHsPtbDkkUCzkq6ZWQmfSPXvdonS5mrdDGDm4Cq3wxUY+3CCD3qv5noi/G3Xv3eK1RHCqVJZ3f/1OU/y6uXOtwtabdlrTCvWHjTy/V71h9unTvuHtZXCXSaKWU2mHnF3LBIrTbpvLwUcy7ed5LpC7T6LKGba1U+d8WvF//9QPRp2g3jbFN445kfFn52UoKrp6szS+YIhOtTnxS3W8B11tIb1n9DOX/TcCl6TJAof3GOfF3/VUODNgRcA6AJuhX3A+EjxV/7xXkXnOu6s7L9+oMFHlq79tMN0Wvcxl107hF1wVtKb31La0VdPVtTSYEABCAAAQhAAAIQgAAEINBdAsyn6i5PSoMABCAAAQhAAAIQgAAE2hMg9mjPhVQIQAACEIAABCAAAQhAoLsEiD26y5PSIAABCEAAAhCAAAQgAIH2BIg92nMhFQIQgAAEIAABCEAAAhDoLgFij+7ypDQIQAACEIAABCAAAQhAoD2B/w9Tza+hJstF+wAAAABJRU5ErkJggg==;" vertex="1" parent="1">
          <mxGeometry x="20" y="290" width="1065" height="226" as="geometry" />
        </mxCell>
      </root>
    </mxGraphModel>
  </diagram>
  <diagram id="SDbwYI5GXuXSc9eD28os" name="Q cubic root of 2">
    <mxGraphModel dx="986" dy="683" grid="1" gridSize="10" guides="1" tooltips="1" connect="1" arrows="1" fold="1" page="1" pageScale="1" pageWidth="827" pageHeight="1169" math="1" shadow="0">
      <root>
        <mxCell id="0" />
        <mxCell id="1" parent="0" />
        <mxCell id="XjI1V5k-E8qzruYpPPFe-1" value="" style="endArrow=classic;html=1;rounded=0;" edge="1" parent="1">
          <mxGeometry width="50" height="50" relative="1" as="geometry">
            <mxPoint x="360" y="330" as="sourcePoint" />
            <mxPoint x="610" y="330" as="targetPoint" />
          </mxGeometry>
        </mxCell>
        <mxCell id="XjI1V5k-E8qzruYpPPFe-2" value="" style="endArrow=classic;html=1;rounded=0;" edge="1" parent="1">
          <mxGeometry width="50" height="50" relative="1" as="geometry">
            <mxPoint x="360" y="330" as="sourcePoint" />
            <mxPoint x="360" y="120" as="targetPoint" />
          </mxGeometry>
        </mxCell>
        <mxCell id="XjI1V5k-E8qzruYpPPFe-3" value="" style="endArrow=classic;html=1;rounded=0;" edge="1" parent="1">
          <mxGeometry width="50" height="50" relative="1" as="geometry">
            <mxPoint x="360" y="330" as="sourcePoint" />
            <mxPoint x="210" y="450" as="targetPoint" />
          </mxGeometry>
        </mxCell>
        <mxCell id="XjI1V5k-E8qzruYpPPFe-4" value="&lt;font style=&quot;font-size: 17px;&quot;&gt;`x`&lt;/font&gt;" style="text;html=1;strokeColor=none;fillColor=none;align=center;verticalAlign=middle;whiteSpace=wrap;rounded=0;" vertex="1" parent="1">
          <mxGeometry x="560" y="340" width="60" height="30" as="geometry" />
        </mxCell>
        <mxCell id="XjI1V5k-E8qzruYpPPFe-5" value="&lt;font style=&quot;font-size: 17px;&quot;&gt;$$y\sqrt[3]{2}$$&lt;/font&gt;" style="text;html=1;strokeColor=none;fillColor=none;align=center;verticalAlign=middle;whiteSpace=wrap;rounded=0;" vertex="1" parent="1">
          <mxGeometry x="360" y="110" width="60" height="30" as="geometry" />
        </mxCell>
        <mxCell id="XjI1V5k-E8qzruYpPPFe-6" value="&lt;font style=&quot;font-size: 17px;&quot;&gt;$$z(\sqrt[3]{2})^2$$&lt;/font&gt;" style="text;html=1;strokeColor=none;fillColor=none;align=center;verticalAlign=middle;whiteSpace=wrap;rounded=0;" vertex="1" parent="1">
          <mxGeometry x="220" y="440" width="60" height="30" as="geometry" />
        </mxCell>
      </root>
    </mxGraphModel>
  </diagram>
</mxfile>
